<svg width="32" height="32" viewBox="0 0 32 32" fill="none" xmlns="http://www.w3.org/2000/svg">
<g opacity="0.7">
<path d="M28.6489 26.6251C26.6727 23.2101 23.5702 20.8139 19.9652 19.7976C21.7179 18.9067 23.1194 17.4514 23.9438 15.6665C24.7682 13.8816 24.9675 11.871 24.5094 9.95896C24.0513 8.04694 22.9626 6.34491 21.4189 5.12732C19.8751 3.90974 17.9663 3.24756 16.0002 3.24756C14.0341 3.24756 12.1252 3.90974 10.5815 5.12732C9.03774 6.34491 7.94906 8.04694 7.49098 9.95896C7.03291 11.871 7.23214 13.8816 8.05655 15.6665C8.88096 17.4514 10.2825 18.9067 12.0352 19.7976C8.43019 20.8126 5.32769 23.2089 3.35144 26.6251C3.29717 26.7105 3.26074 26.806 3.24432 26.9058C3.2279 27.0056 3.23184 27.1077 3.25591 27.2059C3.27998 27.3042 3.32366 27.3965 3.38435 27.4775C3.44504 27.5584 3.52147 27.6262 3.60904 27.6768C3.69662 27.7274 3.79352 27.7598 3.89394 27.772C3.99435 27.7842 4.09619 27.776 4.19334 27.7478C4.29049 27.7196 4.38093 27.6721 4.45922 27.608C4.53752 27.544 4.60205 27.4648 4.64894 27.3751C7.05019 23.2264 11.2927 20.7501 16.0002 20.7501C20.7077 20.7501 24.9502 23.2264 27.3514 27.3751C27.3983 27.4648 27.4629 27.544 27.5412 27.608C27.6194 27.6721 27.7099 27.7196 27.807 27.7478C27.9042 27.776 28.006 27.7842 28.1064 27.772C28.2069 27.7598 28.3038 27.7274 28.3913 27.6768C28.4789 27.6262 28.5553 27.5584 28.616 27.4775C28.6767 27.3965 28.7204 27.3042 28.7445 27.2059C28.7685 27.1077 28.7725 27.0056 28.7561 26.9058C28.7396 26.806 28.7032 26.7105 28.6489 26.6251ZM8.75019 12.0001C8.75019 10.5662 9.17539 9.16451 9.97203 7.97226C10.7687 6.78 11.901 5.85075 13.2257 5.30201C14.5505 4.75328 16.0082 4.6097 17.4146 4.88945C18.821 5.16919 20.1128 5.85969 21.1267 6.87362C22.1406 7.88755 22.8311 9.17937 23.1109 10.5857C23.3906 11.9921 23.247 13.4498 22.6983 14.7746C22.1496 16.0994 21.2203 17.2317 20.0281 18.0283C18.8358 18.8249 17.4341 19.2501 16.0002 19.2501C14.0781 19.2478 12.2354 18.4832 10.8762 17.1241C9.51709 15.765 8.7525 13.9222 8.75019 12.0001Z" fill="black"/>
</g>
</svg>
