<svg width="223" height="327" viewBox="0 0 223 327" fill="none" xmlns="http://www.w3.org/2000/svg">
<g opacity="0.57">
<path d="M169.99 316.138C166.732 301.689 170.811 288.66 172.066 273.912C173.322 259.15 177.834 244.477 186.5 232.464C189.922 236.931 192.731 241.862 194.838 247.077C193.045 240.219 191.311 232.673 194.389 226.293C195.734 223.514 197.886 221.213 200.142 219.106C206.657 213.01 214.247 208.064 222.465 204.583C222.525 216.058 216.802 227.414 207.553 234.197C211.991 233.047 216.204 231.074 219.94 228.415C219.477 243.67 209.092 258.149 194.793 263.468C198.872 263.812 203.026 263.139 206.791 261.541C201.801 283.878 184.334 289.018 172.261 315.869" fill="url(#paint0_linear_130_38)"/>
</g>
<g opacity="0.57">
<path d="M69.3874 305.171L41.6854 288.451C39.8326 287.33 40.8038 284.715 43.0899 284.775C48.8574 284.91 54.5503 286.568 59.1374 289.556C57.6731 282.668 49.2758 279.037 41.8348 276.438C35.9179 274.376 29.3883 271.731 26.1161 267.293C24.7863 265.5 26.2954 263.08 28.7608 262.96C34.2743 262.691 39.8625 263.797 44.614 266.158C36.2914 260.091 26.9827 255.041 17.0464 251.186C14.7753 250.304 12.28 249.244 10.4123 247.839C8.06643 246.046 9.39624 242.595 12.549 242.415C16.0752 242.206 19.6463 242.609 22.9634 243.581C13.0719 238.276 2.28396 231.866 0.207058 221.855C-0.226253 219.749 -0.211312 217.403 2.59774 215.968C3.74826 215.386 5.09302 215.132 6.40789 215.221C9.51578 215.445 11.9961 217.164 14.1926 218.957C19.467 223.26 23.8748 228.355 27.1919 233.943C27.7746 234.929 29.4929 234.75 29.8067 233.659C30.8078 230.073 27.4758 224.515 31.1664 222.214C32.9445 221.108 35.3949 221.422 36.8592 222.797C39.5487 225.307 39.0855 228.654 38.9212 231.792C38.5177 239.113 39.9073 246.464 42.9704 253.233C44.4197 251.784 45.899 250.364 47.3932 248.945C50.4562 246.031 55.9847 247.705 56.1789 251.619C56.4628 257.327 54.0422 264.141 56.0594 269.729C56.3732 270.58 56.8812 271.507 58.3156 271.328C59.6305 271.178 60.6465 270.207 60.8856 269.071C61.9016 264.275 68.4162 265.754 69.8805 269.041C71.1057 271.761 70.015 274.839 68.9093 277.633C67.8036 280.427 66.668 283.49 67.8036 286.224L72.839 282.818C74.886 281.443 77.7249 282.892 77.3663 285.104C76.9779 287.45 75.5883 289.915 74.2435 292.052C71.9574 295.698 69.9552 300.554 73.093 303.572" fill="url(#paint1_linear_130_38)"/>
</g>
<path d="M78.9654 324.475C60.2434 305.783 38.7721 288.944 14.1182 281.353C20.4385 281.189 26.8336 281.249 33.0494 282.877C40.9088 284.939 46.1234 287.778 49.7692 289.81C59.9595 295.488 64.3972 300.09 73.8255 307.083" fill="url(#paint2_linear_130_38)"/>
<path d="M76.7231 324.192C60.3319 313.045 42.1777 303.662 22.9775 301.525C27.6095 300.524 32.3161 299.672 37.1274 300.001C43.1937 300.419 47.4372 301.779 50.3957 302.765C58.6884 305.529 62.5882 308.279 70.5222 312.119" fill="url(#paint3_linear_130_38)"/>
<path d="M159.262 326.179C163.043 320.217 170.364 316.735 177.327 317.587C181.286 318.08 185.097 319.828 189.086 319.664C193.076 319.5 197.439 316.153 196.542 312.223C195.735 308.727 191.581 307.382 188.07 306.889C188.13 305.021 190.057 303.676 191.91 303.557C193.763 303.437 195.526 304.214 197.259 304.887C200.068 305.992 203.281 306.859 206 305.574C208.72 304.289 209.9 299.881 207.39 298.222C205.417 296.937 202.593 298.043 200.576 296.833C199.934 293.934 202.593 291.275 205.402 290.393C208.197 289.511 211.245 289.75 214.084 289.018C216.923 288.301 219.821 286.03 219.657 283.072C219.493 280.173 216.355 278.201 213.486 278.26C210.617 278.335 208.002 279.859 205.537 281.338C203.087 278.171 208.764 273.808 207.479 269.997C206.643 267.502 203.101 266.964 200.875 268.309C198.634 269.669 197.409 272.194 196.318 274.57C194.166 279.231 192.015 283.893 189.863 288.555C186.89 288.884 188.608 282.564 185.874 281.338C184.29 280.636 182.706 282.324 181.959 283.893C179.254 289.631 179.613 296.355 177.596 302.361C177.088 303.856 175.982 305.574 174.443 305.335C170.753 304.752 174.622 296.564 170.962 295.772C169.617 295.473 168.451 296.698 167.764 297.909C163.715 304.976 165.627 315.42 159.158 320.321" fill="url(#paint4_linear_130_38)"/>
<path d="M201.174 152.062H33.3179V165.271H38.3084L72.7791 325.491H162.878L196.183 165.271H201.174V152.062Z" fill="url(#paint5_linear_130_38)"/>
<g opacity="0.53">
<path d="M122.027 254.294L130.305 240.547L130.499 245.717L140.451 246.106C143.798 246.225 148.28 245.314 150.97 243.461C151.851 242.863 152.568 242.042 153.076 241.1C153.076 241.1 154.436 239.188 154.287 236.483C154.287 236.394 154.287 236.408 154.302 236.528C154.466 238.112 154.257 239.696 153.719 241.19L150.566 249.946C148.534 255.579 144.216 260.211 138.583 262.243C137.313 262.706 136.147 262.975 135.281 262.96L130.35 262.9L130.126 267.308L122.027 254.294Z" fill="white"/>
<path d="M131.561 226.323L147.399 219.779L152.24 233.047C153.227 235.766 152.644 238.799 150.716 240.951C149.402 242.415 148.445 242.759 145.517 243.79L143.604 244.089C141.109 244.313 139.57 244.313 137.164 239.128L131.561 226.323Z" fill="white"/>
<path d="M99.9886 224.784L108.162 238.605L103.53 236.319L98.4645 244.896C96.7761 247.779 95.4463 252.157 95.7899 255.415C95.9095 256.475 96.283 257.491 96.8657 258.388C96.8657 258.388 97.9117 260.495 100.347 261.645C100.437 261.69 100.407 261.675 100.302 261.63C98.838 261.033 97.5232 260.091 96.4772 258.911L90.2764 251.978C86.287 247.51 84.2698 241.519 85.1364 235.587C85.3307 234.242 85.6445 233.107 86.0778 232.33L88.4685 228.026L84.7031 225.74L99.9886 224.784Z" fill="white"/>
<path d="M120.22 247.167L118.457 264.216L104.486 262.169C101.632 261.75 99.2266 259.793 98.2554 257.073C97.583 255.206 97.7324 254.219 98.2255 251.156L98.868 249.334C99.8541 247.032 100.601 245.673 106.279 246.016L120.22 247.167Z" fill="white"/>
<path d="M135.013 222.139L119.04 220.57L123.627 218.18L119.712 209.02C118.383 205.957 115.633 202.282 112.809 200.653C111.883 200.115 110.837 199.816 109.776 199.772C109.776 199.772 107.46 199.368 105.084 200.653C104.995 200.698 105.025 200.683 105.114 200.623C106.474 199.801 107.998 199.293 109.582 199.144L118.831 198.233C124.793 197.65 130.814 199.562 135.087 203.776C136.044 204.732 136.791 205.659 137.164 206.45L139.226 210.918L143.305 209.23L135.013 222.139Z" fill="white"/>
<path d="M104.859 224.933L92.144 213.428L102.05 203.357C104.083 201.295 107.071 200.518 109.85 201.34C111.748 201.908 112.465 202.61 114.646 204.822L115.737 206.42C117.022 208.572 117.665 209.977 114.019 214.354L104.859 224.933Z" fill="white"/>
</g>
<path opacity="0.42" d="M162.878 325.491L196.183 165.271H201.174L201.039 165.017L136.7 164.882L174.847 170.994C174.847 170.994 156.259 289.302 151.029 325.491H162.878Z" fill="#006E6F"/>
<path opacity="0.57" d="M124.747 18.707L123.327 12.3418L115.274 14.1199L116.604 20.1414C117.067 22.2183 116.618 24.3998 115.378 26.1181L113.376 28.8973C111.508 31.4822 110.836 34.7544 111.538 37.8623L122.625 87.8425C122.939 89.2471 124.328 90.1286 125.718 89.8149L145.874 85.3473C147.279 85.0335 148.161 83.6439 147.847 82.2543L136.805 32.4982C136.088 29.2559 133.966 26.4916 131.007 24.9676L128.602 23.7274C126.644 22.7114 125.225 20.8735 124.747 18.707Z" fill="url(#paint6_linear_130_38)"/>
<path opacity="0.48" d="M102.364 67.1032L44.7039 40.6562L34.4688 110.524L93.2048 137.643L102.364 67.1032Z" fill="url(#paint7_linear_130_38)"/>
<path opacity="0.71" d="M34.4688 110.524L55.0286 95.8511L92.1888 137.837" fill="url(#paint8_linear_130_38)"/>
<path d="M92.8605 77.0992L51.2178 57.8691" stroke="white" stroke-width="0.423599" stroke-miterlimit="10"/>
<path d="M92.1727 87.2596L50.5449 68.0295" stroke="white" stroke-width="0.423599" stroke-miterlimit="10"/>
<path d="M90.0672 97.5396L48.4395 78.3096" stroke="white" stroke-width="0.423599" stroke-miterlimit="10"/>
<path opacity="0.57" d="M199.515 93.9538L206.628 82.3441C207.42 81.0442 207.509 79.4454 206.867 78.0707L201.458 66.5805C201.04 65.6691 201.084 64.6232 201.607 63.7715L204.895 58.3924L197.827 54.0593L194.54 59.4384C194.017 60.29 193.105 60.8279 192.104 60.8578L179.419 61.2613C177.895 61.3061 176.505 62.1129 175.713 63.4129L168.601 75.0226C167.854 76.2478 168.242 77.8317 169.453 78.5788C170.185 79.027 170.409 79.9833 169.961 80.7154L155.079 105.011C154.63 105.743 153.674 105.967 152.942 105.519C151.717 104.772 150.746 105.534 149.998 106.759L141.541 120.565C140.376 122.463 140.361 124.555 142.244 125.705L166.315 140.453C168.212 141.618 169.946 140.572 171.096 138.675L179.553 124.868C180.3 123.643 180.644 122.508 179.434 121.76C178.702 121.312 178.477 120.356 178.926 119.624L193.808 95.3285C194.256 94.5963 195.212 94.3722 195.944 94.8205C197.17 95.5526 198.768 95.1791 199.515 93.9538Z" fill="url(#paint9_linear_130_38)"/>
<path d="M202.594 62.8002L194.735 57.989C194.406 57.7947 194.287 57.3764 194.481 57.0626L197.335 52.4008C197.529 52.087 197.947 52.0123 198.276 52.2065L202.998 55.1052L206.135 57.0327C206.464 57.227 206.584 57.6453 206.389 57.9591L203.535 62.6209C203.341 62.9048 202.923 62.9945 202.594 62.8002Z" fill="#67A9B6"/>
<path d="M180.315 85.7512L196.856 95.8817" stroke="white" stroke-width="0.423599" stroke-miterlimit="10"/>
<path d="M151.433 104.279L167.973 114.409" stroke="white" stroke-width="0.423599" stroke-miterlimit="10"/>
<path d="M172.516 117.188L183.095 123.673" stroke="white" stroke-width="0.423599" stroke-miterlimit="10"/>
<path d="M166.614 77.3535L174.653 82.2843" stroke="white" stroke-width="0.423599" stroke-miterlimit="10"/>
<path opacity="0.67" d="M166.644 7.53065H161.28C160.772 7.53065 160.353 7.09734 160.353 6.55944V0.971215C160.353 0.433311 159.935 0 159.427 0C158.919 0 158.501 0.433311 158.501 0.971215V6.57438C158.501 7.11228 158.082 7.54559 157.574 7.54559H152.21C151.702 7.54559 151.284 7.9789 151.284 8.51681C151.284 9.05471 151.702 9.48802 152.21 9.48802H157.574C158.082 9.48802 158.501 9.92133 158.501 10.4592V16.0624C158.501 16.6003 158.919 17.0336 159.427 17.0336C159.935 17.0336 160.353 16.6003 160.353 16.0624V10.4294C160.353 9.89145 160.772 9.45814 161.28 9.45814H166.644C167.152 9.45814 167.57 9.02483 167.57 8.48692C167.57 7.96396 167.152 7.53065 166.644 7.53065Z" fill="#9FD6DD"/>
<path opacity="0.67" d="M32.9452 126.183H28.1489C27.6857 126.183 27.3271 125.795 27.3271 125.316V120.311C27.3271 119.833 26.9536 119.444 26.5053 119.444C26.0422 119.444 25.6836 119.833 25.6836 120.311V125.316C25.6836 125.795 25.31 126.183 24.8618 126.183H20.0654C19.6023 126.183 19.2437 126.572 19.2437 127.05C19.2437 127.528 19.6172 127.916 20.0654 127.916H24.8618C25.3249 127.916 25.6836 128.305 25.6836 128.783V133.788C25.6836 134.267 26.0571 134.655 26.5053 134.655C26.9685 134.655 27.3271 134.267 27.3271 133.788V128.783C27.3271 128.305 27.7007 127.916 28.1489 127.916H32.9452C33.4084 127.916 33.767 127.528 33.767 127.05C33.767 126.572 33.3935 126.183 32.9452 126.183Z" fill="#9FD6DD"/>
<path opacity="0.53" d="M75.7082 37.0405C66.4593 37.0405 58.9585 29.5397 58.9585 20.2907C58.9585 11.0418 66.4593 3.54102 75.7082 3.54102C84.9572 3.54102 92.4579 11.0418 92.4579 20.2907C92.443 29.5397 84.9572 37.0405 75.7082 37.0405Z" stroke="#9FD6DD" stroke-width="1.05892" stroke-miterlimit="10"/>
<path opacity="0.67" d="M203.087 125.391C206.561 125.391 209.378 122.575 209.378 119.101C209.378 115.627 206.561 112.81 203.087 112.81C199.613 112.81 196.797 115.627 196.797 119.101C196.797 122.575 199.613 125.391 203.087 125.391Z" stroke="#9FD6DD" stroke-width="1.05892" stroke-miterlimit="10"/>
<path opacity="0.67" d="M173.817 44.9894C169.035 44.9894 165.15 41.1046 165.15 36.3232C165.15 31.5418 169.035 27.657 173.817 27.657C178.598 27.657 182.483 31.5418 182.483 36.3232C182.483 41.1046 178.598 44.9894 173.817 44.9894Z" stroke="#9FD6DD" stroke-width="1.05892" stroke-miterlimit="10"/>
<path opacity="0.67" d="M116.873 122.149C113.511 122.149 110.776 119.594 110.776 116.441C110.776 113.288 113.511 110.733 116.873 110.733C120.235 110.733 122.969 113.288 122.969 116.441C122.954 119.594 120.235 122.149 116.873 122.149Z" fill="#9FD6DD"/>
<defs>
<linearGradient id="paint0_linear_130_38" x1="159.429" y1="268.659" x2="233.09" y2="252.268" gradientUnits="userSpaceOnUse">
<stop stop-color="#4BAB83" stop-opacity="0.2"/>
<stop offset="1" stop-color="#4AB2C5"/>
</linearGradient>
<linearGradient id="paint1_linear_130_38" x1="4.56926" y1="263.57" x2="74.3783" y2="256.173" gradientUnits="userSpaceOnUse">
<stop stop-color="#4BAB83" stop-opacity="0.2"/>
<stop offset="1" stop-color="#4AB2C5"/>
</linearGradient>
<linearGradient id="paint2_linear_130_38" x1="31.6969" y1="311.551" x2="65.1277" y2="292.103" gradientUnits="userSpaceOnUse">
<stop stop-color="#4BAB83"/>
<stop offset="1" stop-color="#91D8C5"/>
</linearGradient>
<linearGradient id="paint3_linear_130_38" x1="40.1221" y1="321.286" x2="62.0065" y2="302.299" gradientUnits="userSpaceOnUse">
<stop stop-color="#4BAB83"/>
<stop offset="1" stop-color="#91D8C5"/>
</linearGradient>
<linearGradient id="paint4_linear_130_38" x1="155.835" y1="300.32" x2="220.788" y2="291.705" gradientUnits="userSpaceOnUse">
<stop stop-color="#4BAB83"/>
<stop offset="1" stop-color="#91D8C5"/>
</linearGradient>
<linearGradient id="paint5_linear_130_38" x1="33.3185" y1="238.776" x2="201.175" y2="238.776" gradientUnits="userSpaceOnUse">
<stop stop-color="#4BAB83"/>
<stop offset="1" stop-color="#3BA089"/>
</linearGradient>
<linearGradient id="paint6_linear_130_38" x1="69.056" y1="-17.8558" x2="146.888" y2="80.5225" gradientUnits="userSpaceOnUse">
<stop stop-color="#4BAB83" stop-opacity="0.2"/>
<stop offset="1" stop-color="#4AB2C5"/>
</linearGradient>
<linearGradient id="paint7_linear_130_38" x1="65.5944" y1="34.7594" x2="93.0795" y2="202.759" gradientUnits="userSpaceOnUse">
<stop offset="0.00446914" stop-color="#248596"/>
<stop offset="1" stop-color="#E7F0F2"/>
</linearGradient>
<linearGradient id="paint8_linear_130_38" x1="61.7319" y1="93.6158" x2="74.3249" y2="170.589" gradientUnits="userSpaceOnUse">
<stop offset="0.00446914" stop-color="#248596"/>
<stop offset="1" stop-color="#E7F0F2"/>
</linearGradient>
<linearGradient id="paint9_linear_130_38" x1="206.485" y1="24.795" x2="153.751" y2="149.522" gradientUnits="userSpaceOnUse">
<stop stop-color="#4BAB83" stop-opacity="0.3"/>
<stop offset="1" stop-color="#4AB2C5" stop-opacity="0.8"/>
</linearGradient>
</defs>
</svg>
