<svg width="240" height="329" viewBox="0 0 240 329" fill="none" xmlns="http://www.w3.org/2000/svg">
<g opacity="0.71">
<path d="M209.217 132.515C204.745 162.049 242.306 183.058 239.744 212.809C239.201 219.113 236.872 225.557 231.965 229.548C224.108 235.93 211.701 233.849 204.217 227.032C196.732 220.216 193.394 209.921 192.105 199.89C189.201 177.25 198.487 150.216 207.819 131.226" fill="url(#paint0_linear_130_84)"/>
</g>
<g opacity="0.71">
<path d="M209.092 125.295C207.586 116.149 207.384 106.024 210.055 97.1426C212.958 97.5308 213.812 103.012 216.638 102.205C218.253 101.739 219.309 99.1922 220.831 99.9065C221.53 100.233 221.747 101.102 222.073 101.801C223.284 104.332 227.29 104.86 229.123 102.733C231.095 103.556 230.039 106.537 228.688 108.198C224.62 113.26 215.086 123.68 211.017 128.742" fill="url(#paint1_linear_130_84)"/>
</g>
<g opacity="0.39">
<path d="M213.035 226.986C212.429 226.396 211.606 226.054 210.939 225.526C210.271 224.998 209.759 224.098 210.085 223.306C210.659 221.908 212.709 222.483 214.153 222.933C216.56 223.678 219.308 223.275 221.404 221.862C223.47 220.48 224.821 218.275 225.892 216.023C226.731 214.253 227.755 212.172 229.681 211.877C231.265 211.644 232.817 212.887 233.33 214.408C233.858 215.93 233.547 217.623 232.988 219.129C230.442 225.899 222.119 229.859 215.255 227.56" fill="url(#paint2_linear_130_84)"/>
</g>
<g opacity="0.49">
<g opacity="0.57">
<path d="M161.236 317.529C157.695 306.442 159.994 295.945 159.947 284.299C159.916 272.653 162.447 260.837 168.41 250.837C171.391 254.097 173.938 257.778 175.941 261.706C174.062 256.458 172.183 250.666 174.155 245.448C175.009 243.181 176.546 241.225 178.177 239.408C182.85 234.175 188.472 229.781 194.667 226.489C195.506 235.48 191.795 244.765 185.024 250.712C188.425 249.501 191.593 247.669 194.326 245.34C195.009 257.327 187.866 269.377 177.028 274.532C180.242 274.517 183.456 273.709 186.298 272.187C183.922 290.029 170.599 295.262 162.975 317.125" fill="url(#paint3_linear_130_84)"/>
</g>
<g opacity="0.57">
<path d="M79.4499 315.82L46.1427 280.572C43.9067 278.212 46.3757 274.827 49.6365 275.821C57.9128 278.336 65.4749 283.01 70.8941 289.144C71.5307 278.616 60.8631 269.998 51.1737 263.274C43.472 257.933 35.0714 251.504 32.1211 243.787C30.9255 240.666 34.0621 237.778 37.6801 238.601C45.7545 240.417 53.3632 244.253 59.2948 249.563C49.7141 237.467 38.2857 226.442 25.4752 216.908C22.556 214.734 19.3573 212.203 17.2455 209.408C14.5592 205.884 17.8821 201.427 22.5094 202.421C27.6957 203.539 32.6801 205.542 37.09 208.29C24.9317 196.66 11.9194 183.089 12.9287 167.809C13.1461 164.595 14.1089 161.21 18.7361 160.247C20.6305 159.859 22.6802 160.045 24.5435 160.698C28.9379 162.266 31.8416 165.744 34.295 169.222C40.1801 177.545 44.5123 186.66 47.0744 196.07C47.5247 197.716 50.0868 198.151 50.9564 196.707C53.8445 191.924 51.2669 182.561 57.5091 180.728C60.5215 179.843 63.9221 181.287 65.4904 183.834C68.3786 188.539 66.36 193.197 64.8538 197.654C61.3289 208.057 60.3973 219.253 62.1209 230.247C64.8072 228.74 67.4935 227.265 70.2264 225.821C75.8164 222.84 83.13 227.483 81.8412 233.197C79.9623 241.551 73.7512 250.433 74.4034 259.315C74.5121 260.666 74.8692 262.203 77.0276 262.545C78.9841 262.84 80.8319 261.861 81.6393 260.324C85.0399 253.802 93.8442 258.554 94.6516 263.88C95.3193 268.29 92.5243 272.311 89.807 275.898C87.0896 279.485 84.2325 283.46 84.7604 287.87L93.3939 284.982C96.9032 283.802 100.428 287.047 99.0149 290.091C97.5088 293.336 94.5274 296.333 91.7324 298.88C86.9809 303.227 82.1362 309.439 85.4592 315.06" fill="url(#paint4_linear_130_84)"/>
</g>
<path d="M80.845 315.54C57.5067 284.78 30.7368 257.078 -0.00830078 244.594C7.8643 244.314 15.8456 244.407 23.594 247.094C33.392 250.479 39.8982 255.168 44.4323 258.507C57.1496 267.854 62.662 275.401 74.432 286.923" fill="url(#paint5_linear_130_84)"/>
<path d="M78.0351 315.075C57.6005 296.737 34.961 281.302 11.0171 277.777C16.7934 276.116 22.6629 274.718 28.6567 275.262C36.2187 275.945 41.5137 278.196 45.2093 279.811C55.5509 284.345 60.4111 288.879 70.3023 295.184" fill="url(#paint6_linear_130_84)"/>
<path d="M164.121 311.892C168.143 306.1 178.5 298.523 185.876 299.346C190.084 299.812 194.121 301.52 198.344 301.364C202.568 301.209 207.211 297.964 206.248 294.144C205.394 290.759 200.984 289.454 197.257 288.958C197.32 287.141 199.369 285.836 201.326 285.728C203.282 285.619 205.161 286.364 206.993 287.017C209.959 288.088 213.375 288.927 216.264 287.684C219.152 286.427 220.409 282.156 217.739 280.557C215.658 279.299 212.646 280.386 210.518 279.206C209.835 276.396 212.661 273.818 215.642 272.948C218.608 272.094 221.838 272.327 224.85 271.613C227.863 270.914 230.937 268.709 230.767 265.837C230.596 263.026 227.273 261.116 224.229 261.178C221.186 261.24 218.406 262.731 215.798 264.175C213.189 261.101 219.214 256.877 217.863 253.166C216.978 250.744 213.22 250.216 210.86 251.536C208.484 252.855 207.195 255.293 206.015 257.607C203.733 262.125 201.45 266.644 199.167 271.163C196.015 271.489 197.832 265.34 194.928 264.16C193.251 263.476 191.559 265.107 190.782 266.644C187.91 272.203 188.298 278.725 186.14 284.563C185.596 286.023 184.432 287.684 182.786 287.451C178.873 286.877 182.972 278.942 179.105 278.166C177.692 277.886 176.435 279.066 175.705 280.231C171.419 287.094 170.208 299.967 163.345 304.718" fill="url(#paint7_linear_130_84)"/>
<g opacity="0.57">
<path d="M149.465 315.06C134.652 306.908 125.506 291.147 125.614 274.237C133.021 278.321 138.58 285.122 142.897 292.405C147.214 299.687 150.443 307.016 154.419 314.47C152.291 293.212 136.391 274.858 121.903 259.16C129.357 258.942 137.912 263.461 142.322 269.47C146.732 275.479 152.338 285.448 154.217 292.669C156.794 302.56 159.76 304.547 161.158 314.672" fill="url(#paint8_linear_130_84)"/>
</g>
</g>
<path opacity="0.57" d="M123.69 328.274C178.867 328.274 223.596 325.256 223.596 321.535C223.596 317.813 178.867 314.795 123.69 314.795C68.5136 314.795 23.7842 317.813 23.7842 321.535C23.7842 325.256 68.5136 328.274 123.69 328.274Z" fill="url(#paint9_linear_130_84)"/>
<path d="M60.3368 241.908L32.0296 227.684C28.2874 225.805 26.8899 221.163 28.9862 217.529L61.253 161.427L95.1347 178.445L70.3678 238.181C68.7218 242.094 64.1256 243.818 60.3368 241.908Z" fill="url(#paint10_linear_130_84)"/>
<g opacity="0.53">
<path d="M61.0649 207.203L65.7543 204.237L65.009 205.867L68.0214 207.529C69.0307 208.088 70.568 208.491 71.686 208.352C72.0586 208.305 72.4002 208.165 72.6953 207.948C72.6953 207.948 73.4096 207.56 73.7822 206.706C73.7977 206.675 73.7977 206.69 73.7822 206.721C73.5959 207.234 73.2853 207.7 72.8816 208.072L70.5524 210.277C69.0462 211.706 66.9966 212.467 64.9469 212.218C64.4811 212.156 64.0773 212.063 63.8134 211.923L62.3072 211.147L61.5618 212.467L61.0649 207.203Z" fill="white"/>
<path d="M68.3467 200.044L74.2473 200.479L73.6883 205.324C73.5796 206.317 72.9274 207.156 71.9958 207.529C71.3591 207.777 71.0175 207.73 69.9461 207.591L69.3095 207.389C68.502 207.078 68.0362 206.83 68.0983 204.858L68.3467 200.044Z" fill="white"/>
<path d="M58.8451 194.672L59.2178 200.2L58.1464 198.771L55.2582 200.634C54.2955 201.256 53.193 202.405 52.8048 203.461C52.6806 203.802 52.634 204.175 52.6806 204.547C52.6806 204.547 52.6806 205.355 53.2551 206.1C53.2707 206.131 53.2707 206.116 53.2396 206.085C52.8825 205.665 52.6185 205.184 52.4787 204.656L51.6402 201.551C51.0968 199.548 51.4073 197.389 52.603 195.697C52.8669 195.308 53.1464 195.013 53.3949 194.843L54.8079 193.88L54.0005 192.591L58.8451 194.672Z" fill="white"/>
<path d="M61.6086 204.718L58.4254 209.702L54.4347 206.907C53.6118 206.333 53.177 205.355 53.3012 204.361C53.3789 203.678 53.5807 203.398 54.2174 202.529L54.6987 202.063C55.3664 201.504 55.8012 201.209 57.5093 202.187L61.6086 204.718Z" fill="white"/>
<path d="M70.0566 199.283L65.3672 196.317L67.1529 196.286L67.3702 192.855C67.4324 191.706 67.1529 190.137 66.5317 189.206C66.3299 188.895 66.0504 188.647 65.7243 188.46C65.7243 188.46 65.0721 187.979 64.1405 188.01C64.1094 188.01 64.1249 188.01 64.156 188.01C64.6995 187.963 65.2585 188.041 65.7554 188.243L68.7522 189.392C70.6777 190.137 72.246 191.659 72.9137 193.615C73.069 194.066 73.1466 194.454 73.1311 194.765L73.069 196.473L74.5907 196.581L70.0566 199.283Z" fill="white"/>
<path d="M60.3201 195.464L58.1772 189.936L62.8045 188.367C63.7517 188.041 64.7921 188.274 65.5219 188.957C66.0188 189.423 66.1275 189.749 66.4691 190.774L66.5623 191.442C66.6244 192.311 66.6089 192.839 64.8076 193.631L60.3201 195.464Z" fill="white"/>
</g>
<path d="M87.3233 173.771C84.8854 178.616 67.3235 169.796 69.7613 164.952C72.1992 160.107 78.0998 158.15 82.9444 160.588C87.8046 163.026 89.7612 168.927 87.3233 173.771Z" stroke="url(#paint11_linear_130_84)" stroke-width="1.55278" stroke-miterlimit="10"/>
<path d="M38.8041 72.8261C30.0308 79.8446 31.1333 91.1178 37.0494 100.823C42.981 110.528 58.6952 115.357 67.3752 108.99C72.1112 105.512 77.2665 99.0681 82.5459 96.7389C87.7633 94.4252 90.2011 93.8197 95.5893 92.0805C103.555 89.5029 108.105 80.1862 114.968 74.9689C122.126 69.5342 124.238 58.9752 129.502 51.2424C133.695 45.0934 138.337 45.2021 141.163 38.1214C143.586 32.0966 148.896 26.5687 149.906 20.047C151.629 9.03779 143.974 0.078244 134.067 0.00060488C124.176 -0.0770342 115.356 7.32973 109.409 16.2116C104.953 22.8731 101.536 30.6059 95.7911 35.8543C81.1795 49.1772 56.2107 39.5344 49.3164 58.8355C46.3972 66.9876 44.6425 68.1522 38.8041 72.8261Z" fill="#006E6F"/>
<path d="M49.4697 290.044C51.861 288.414 54.2523 286.799 56.6436 285.169C57.5752 284.532 58.6001 283.864 59.7491 283.864C61.7678 283.864 63.1031 285.821 64.0659 287.544C64.4075 288.165 64.7646 288.849 64.6093 289.532C64.4075 290.386 63.5069 290.883 62.6994 291.256C59.0659 292.964 55.4324 294.672 51.7834 296.38" fill="#FFD8B3"/>
<path d="M163.66 310.634C163.459 307.746 163.257 304.858 163.055 301.985C162.977 300.851 162.868 299.64 162.154 298.771C160.912 297.234 158.567 297.451 156.657 297.824C155.959 297.963 155.213 298.119 154.778 298.693C154.235 299.392 154.406 300.401 154.608 301.271C155.508 305.168 156.409 309.066 157.31 312.963" fill="#FFD8B3"/>
<path d="M185.882 321.162C180.602 321.488 176.27 321.737 170.975 322.063C169.36 322.156 156.503 322.28 154.655 322.358C154.05 322.389 153.366 322.389 152.901 322.001C152.342 321.535 152.295 320.728 152.31 320.013C152.373 317.172 152.823 314.346 153.646 311.628C153.832 311.007 154.112 310.324 154.717 310.106C155.276 309.92 155.882 310.231 156.394 310.495C158.522 311.628 158.661 311.613 161.13 311.007C161.736 310.852 164.096 310.029 164.655 309.78C165.292 309.501 166.022 309.594 166.689 309.703C172.574 310.65 178.335 312.374 183.77 314.827C184.997 315.386 186.285 316.023 187.031 317.156C187.776 318.274 187.76 320.029 186.658 320.79" fill="#37997B"/>
<path d="M55.791 319.593C53.4463 314.842 51.5364 310.944 49.2073 306.193C48.493 304.733 43.4154 292.932 42.6235 291.255C42.3595 290.696 42.0955 290.09 42.2818 289.5C42.4837 288.817 43.229 288.445 43.8967 288.181C46.5365 287.14 49.3159 286.457 52.142 286.162C52.7787 286.1 53.524 286.084 53.9588 286.566C54.347 287.016 54.3004 287.684 54.2383 288.274C54.0209 290.665 54.083 290.789 55.5892 292.839C55.9618 293.336 57.6389 295.184 58.0892 295.618C58.5861 296.1 58.7879 296.799 58.9432 297.466C60.3407 303.258 60.9773 309.236 60.8221 315.199C60.791 316.55 60.6823 317.978 59.937 319.096C59.1916 320.23 57.5767 320.882 56.4432 320.152" fill="#37997B"/>
<path d="M120.899 178.245C129.968 219.269 139.067 257.033 151.598 297.001C152.592 300.185 154.02 305.635 155.526 305.852C157.638 306.147 159.439 305.899 161.442 305.542C163.088 305.247 164.237 303.756 164.082 302.11C158.383 241.614 158.119 192.981 144.657 133.928C144.175 131.832 119.16 122.515 119.16 122.515" fill="#368D96"/>
<path d="M59.146 293.01C59.4876 294.066 60.6833 294.594 61.6771 294.113C76.1956 287.063 89.0992 274.92 99.9687 259.688C115.931 237.343 125.822 219.564 134.906 192.825C141.894 172.266 145.62 151.754 144.099 129.968C134.192 130.419 126.537 130.325 116.708 131.847C114.705 132.158 114.239 132.297 112.779 133.819C111.382 135.279 107.624 135.884 103.012 151.567C96.3352 174.285 102.158 193.182 96.7855 216.225C90.2948 244.082 79.0993 267.032 57.4846 283.896C56.879 284.377 56.615 285.169 56.8634 285.899L59.146 293.01Z" fill="#61A7B3"/>
<path d="M201.518 123.897C202.791 123.167 207.03 124.052 208.397 124.456C209.949 124.906 211.595 125.527 212.465 126.909C213.443 128.493 213.133 130.574 212.636 132.406C212.48 133.012 212.279 133.633 211.859 134.083C211.44 134.533 210.71 134.751 210.213 134.409C209.856 134.161 209.685 133.664 209.297 133.462C208.738 133.151 208.071 133.571 207.449 133.741C206.409 134.036 205.291 133.664 204.453 132.996C203.614 132.328 200.431 130.574 199.841 129.673" fill="#FFD8B3"/>
<path d="M200.417 129.098C199.998 130.061 198.973 130.636 197.932 130.434C189.501 128.912 173.756 123.726 161.69 116.661C159.066 115.123 156.489 113.462 154.222 111.428C151.069 108.602 148.585 105.108 146.116 101.645C139.656 92.5458 133.104 83.2602 129.672 72.6237C127.995 67.4374 127.452 60.7915 132.374 57.7014C133.973 56.6921 135.914 56.335 137.793 56.5058C141.908 56.894 145.215 59.4871 147.871 62.4529C155.604 71.1019 158.476 82.9186 163.212 93.5241C164.672 96.8005 166.364 100.046 168.864 102.608C171.287 105.108 174.377 106.847 177.405 108.539C187.032 113.959 192.016 117.282 201.085 122.437C202.109 123.027 202.529 124.285 202.063 125.356L200.417 129.098Z" fill="#37997B"/>
<path d="M114.127 134.44C111.549 134.425 109.282 132.794 108.676 130.434C104.717 115.31 104.266 98.3225 102.683 83.1518C102.341 79.8444 103.071 72.0805 104.36 68.9749C106.658 63.416 107.745 60.9626 114.67 57.7173C121.595 54.4564 128.645 56.2421 136.347 56.4595C145.555 56.7235 148.893 69.7358 152.387 75.6829C157.558 84.4717 156.083 89.7046 151.937 97.748C149.313 102.841 147.046 104.083 146.58 131.443C146.549 133.198 145.011 134.627 143.148 134.611L114.127 134.44Z" fill="#4AAA83"/>
<path d="M78.4747 152.654C77.4188 153.633 76.7667 158.524 76.7356 159.952C76.689 161.567 76.7667 163.322 77.807 164.58C78.9871 166.008 81.0213 166.334 82.8691 166.412C83.4747 166.443 84.1113 166.443 84.6548 166.179C85.1983 165.915 85.6175 165.294 85.4467 164.719C85.3225 164.3 84.9188 163.99 84.8411 163.555C84.7169 162.918 85.307 162.421 85.6641 161.878C86.2542 160.977 86.2386 159.797 85.866 158.788C85.4933 157.778 84.1579 153.71 83.5057 152.856" fill="#FFD8B3"/>
<path d="M78.6744 154.549C77.6806 154.502 76.8421 153.803 76.6092 152.856C73.0844 138.276 72.4943 122.996 74.9167 108.198C75.4291 105.093 76.0657 101.987 77.1837 99.0524C78.7365 94.953 81.1899 91.2574 83.6122 87.6084C89.9786 77.9966 96.5003 68.2452 105.46 60.9937C109.839 57.4533 116.019 54.4875 120.817 58.121C122.37 59.3012 123.441 61.0403 123.969 62.9191C125.118 67.0495 123.845 71.211 121.966 74.8756C116.5 85.5432 106.19 92.6704 97.727 101.164C95.1183 103.788 92.6184 106.63 91.0656 109.984C89.5594 113.26 89.0314 116.878 88.5035 120.434C86.842 131.801 86.4072 141.63 84.8855 152.81C84.7302 153.959 83.7054 154.797 82.5563 154.751L78.6744 154.549Z" fill="#5BB58E"/>
<path d="M125.571 58.7267C124.251 57.9038 123.506 56.2423 123.661 54.4411C124.08 49.938 124.67 43.3231 124.965 40.2952C125.089 39.053 125.214 37.7952 125.369 36.553C125.4 36.2735 125.462 35.9629 125.633 35.7611C125.773 35.5903 125.975 35.5282 126.161 35.4971C128.024 35.1555 129.732 36.4133 131.518 36.9723C133.707 37.671 136.083 37.3294 138.288 37.9195C138.552 37.9971 138.847 38.1058 138.956 38.4008C139.018 38.5716 139.018 38.789 139.018 38.9753C138.94 42.5933 138.614 50.2641 138.474 54.7982C138.443 55.823 138.661 57.3758 138.024 58.1056L136.658 59.5808C134.825 61.6615 131.145 62.1428 128.987 60.823L125.571 58.7267Z" fill="#FFD8B3"/>
<g opacity="0.37">
<path d="M125.649 35.7604C125.789 35.5895 125.991 35.5274 126.177 35.4964C128.04 35.1548 129.748 36.4125 131.534 36.9715C133.724 37.6703 136.099 37.3287 138.304 37.9187C138.568 37.9964 138.863 38.1051 138.972 38.4001C139.034 38.5709 139.034 38.7883 139.034 38.9746C138.987 40.9932 138.956 43.0118 138.91 45.0305C136.845 46.2727 134.64 47.018 132.419 46.9714C129.376 46.8938 126.394 45.1081 124.811 42.0491C124.873 41.4591 124.919 40.869 124.981 40.2634C125.106 39.0212 125.23 37.7634 125.385 36.5212C125.416 36.2728 125.478 35.9622 125.649 35.7604Z" fill="#E89C82"/>
</g>
<path d="M121.722 32.5001C119.269 32.2672 117.017 30.9163 116.613 28.9909C116.194 27.0654 118.089 24.7207 120.604 24.4878" fill="#FFD8B3"/>
<path d="M121.332 32.7017C123.987 42.2979 130.509 43.152 137.356 45.0619C138.567 45.4035 140.586 45.4501 141.859 45.2327C144.996 44.6737 146.394 41.4284 146.984 38.6955C148.024 33.9595 148.505 29.1459 148.459 24.3788C148.428 21.0869 148.102 17.7484 146.533 14.8137C144.98 11.8945 141.968 9.42554 138.241 9.00629C133.583 8.47834 128.971 11.1647 125.897 14.41C121.347 19.2081 119.065 25.7919 121.021 31.5061" fill="#FFD8B3"/>
<path d="M148.445 24.2236C148.476 27.2516 148.585 26.7391 148.88 28.4472C148.911 28.6335 149.284 30.0931 150.246 30.7298C151.007 31.2267 151.209 32.4534 150.541 33.1832C150.169 33.5869 149.812 33.7732 149.284 33.8975C148.554 34.0838 147.824 33.913 147.405 33.2919" fill="#FFD8B3"/>
<path d="M116.688 24.084C124.142 24.6741 131.362 21.4753 137.962 17.9505C139.639 17.0654 141.316 16.1182 142.573 14.7052C143.831 13.2922 144.592 11.3046 144.095 9.47232C143.226 6.33571 139.297 5.26429 136.052 5.41956C130.865 5.66801 125.803 7.76426 121.952 11.227" fill="#006E6F"/>
<path d="M141.75 12.1745C143.303 14.4571 144.902 16.8018 147.107 18.4633C149.312 20.1247 152.294 21.0409 154.902 20.1092C152.76 14.395 150.477 8.47886 146.005 4.33294C141.533 0.187009 134.188 -1.53658 129.312 2.14351" fill="#006E6F"/>
<defs>
<linearGradient id="paint0_linear_130_84" x1="190.38" y1="227.974" x2="267.11" y2="106.502" gradientUnits="userSpaceOnUse">
<stop offset="0.00446914" stop-color="#248596"/>
<stop offset="1" stop-color="#66A9B5" stop-opacity="0.71"/>
</linearGradient>
<linearGradient id="paint1_linear_130_84" x1="147.352" y1="197.954" x2="243.035" y2="71.3677" gradientUnits="userSpaceOnUse">
<stop offset="0.00446914" stop-color="#248596"/>
<stop offset="1" stop-color="#66A9B5" stop-opacity="0.71"/>
</linearGradient>
<linearGradient id="paint2_linear_130_84" x1="210.332" y1="218.974" x2="233.268" y2="220.695" gradientUnits="userSpaceOnUse">
<stop stop-color="white" stop-opacity="0.4"/>
<stop offset="1" stop-color="white"/>
</linearGradient>
<linearGradient id="paint3_linear_130_84" x1="149.697" y1="281.052" x2="206.285" y2="263.139" gradientUnits="userSpaceOnUse">
<stop stop-color="#4BAB83" stop-opacity="0.2"/>
<stop offset="1" stop-color="#4AB2C5"/>
</linearGradient>
<linearGradient id="paint4_linear_130_84" x1="2.50756" y1="229.781" x2="106.29" y2="247.064" gradientUnits="userSpaceOnUse">
<stop stop-color="#4BAB83" stop-opacity="0.2"/>
<stop offset="1" stop-color="#4AB2C5"/>
</linearGradient>
<linearGradient id="paint5_linear_130_84" x1="25.6334" y1="288.672" x2="62.8633" y2="267.013" gradientUnits="userSpaceOnUse">
<stop stop-color="#4BAB83"/>
<stop offset="1" stop-color="#91D8C5"/>
</linearGradient>
<linearGradient id="paint6_linear_130_84" x1="34.6424" y1="305.002" x2="59.8426" y2="283.138" gradientUnits="userSpaceOnUse">
<stop stop-color="#4BAB83"/>
<stop offset="1" stop-color="#91D8C5"/>
</linearGradient>
<linearGradient id="paint7_linear_130_84" x1="160.217" y1="284.903" x2="232.013" y2="274.508" gradientUnits="userSpaceOnUse">
<stop stop-color="#4BAB83"/>
<stop offset="1" stop-color="#91D8C5"/>
</linearGradient>
<linearGradient id="paint8_linear_130_84" x1="121.904" y1="287.106" x2="161.153" y2="287.106" gradientUnits="userSpaceOnUse">
<stop stop-color="#4BAB83" stop-opacity="0.2"/>
<stop offset="1" stop-color="#4AB2C5"/>
</linearGradient>
<linearGradient id="paint9_linear_130_84" x1="23.7829" y1="321.535" x2="223.596" y2="321.535" gradientUnits="userSpaceOnUse">
<stop stop-color="#4BAB83" stop-opacity="0.3"/>
<stop offset="1" stop-color="#4AB2C5" stop-opacity="0.8"/>
</linearGradient>
<linearGradient id="paint10_linear_130_84" x1="41.7378" y1="192.096" x2="83.0881" y2="212.868" gradientUnits="userSpaceOnUse">
<stop stop-color="#4BAB83"/>
<stop offset="1" stop-color="#3BA089"/>
</linearGradient>
<linearGradient id="paint11_linear_130_84" x1="70.3684" y1="162.033" x2="89.3145" y2="171.551" gradientUnits="userSpaceOnUse">
<stop stop-color="#4BAB83"/>
<stop offset="1" stop-color="#3BA089"/>
</linearGradient>
</defs>
</svg>
