<svg width="32" height="32" viewBox="0 0 32 32" fill="none" xmlns="http://www.w3.org/2000/svg">
<g opacity="0.7">
<path d="M4 6.6665V5.6665C3.73478 5.6665 3.48043 5.77186 3.29289 5.9594C3.10536 6.14693 3 6.40129 3 6.6665H4ZM28 6.6665H29C29 6.40129 28.8946 6.14693 28.7071 5.9594C28.5196 5.77186 28.2652 5.6665 28 5.6665V6.6665ZM4 7.6665H28V5.6665H4V7.6665ZM27 6.6665V22.6665H29V6.6665H27ZM25.3333 24.3332H6.66667V26.3332H25.3333V24.3332ZM5 22.6665V6.6665H3V22.6665H5ZM6.66667 24.3332C5.74667 24.3332 5 23.5865 5 22.6665H3C3 23.639 3.38631 24.5716 4.07394 25.2592C4.76158 25.9469 5.69421 26.3332 6.66667 26.3332V24.3332ZM27 22.6665C27 23.5865 26.2533 24.3332 25.3333 24.3332V26.3332C26.3058 26.3332 27.2384 25.9469 27.9261 25.2592C28.6137 24.5716 29 23.639 29 22.6665H27Z" fill="black"/>
<path d="M4 6.6665L16 18.6665L28 6.6665" stroke="black" stroke-width="1.5" stroke-linecap="round" stroke-linejoin="round"/>
</g>
</svg>
