<svg width="32" height="32" viewBox="0 0 32 32" fill="none" xmlns="http://www.w3.org/2000/svg">
<g opacity="0.7">
<path d="M5.75 7V25C5.75 25.1989 5.67098 25.3897 5.53033 25.5303C5.38968 25.671 5.19891 25.75 5 25.75C4.80109 25.75 4.61032 25.671 4.46967 25.5303C4.32902 25.3897 4.25 25.1989 4.25 25V7C4.25 6.80109 4.32902 6.61032 4.46967 6.46967C4.61032 6.32902 4.80109 6.25 5 6.25C5.19891 6.25 5.38968 6.32902 5.53033 6.46967C5.67098 6.61032 5.75 6.80109 5.75 7ZM16.5725 14.0513L13.75 14.9675V12C13.75 11.8011 13.671 11.6103 13.5303 11.4697C13.3897 11.329 13.1989 11.25 13 11.25C12.8011 11.25 12.6103 11.329 12.4697 11.4697C12.329 11.6103 12.25 11.8011 12.25 12V14.9675L9.4275 14.0513C9.33332 14.0187 9.2336 14.0053 9.13417 14.0117C9.03473 14.0182 8.93758 14.0443 8.84838 14.0887C8.75918 14.1332 8.67973 14.1949 8.61465 14.2704C8.54958 14.3458 8.5002 14.4335 8.46939 14.5282C8.43858 14.623 8.42696 14.7229 8.4352 14.8222C8.44345 14.9215 8.47141 15.0182 8.51743 15.1066C8.56346 15.195 8.62663 15.2733 8.70326 15.337C8.77989 15.4006 8.86845 15.4484 8.96375 15.4775L11.7863 16.3937L10.0363 18.795C9.97577 18.8744 9.93177 18.9652 9.90682 19.0618C9.88187 19.1585 9.87647 19.2592 9.89095 19.358C9.90542 19.4568 9.93948 19.5517 9.99112 19.6372C10.0428 19.7226 10.1109 19.7969 10.1917 19.8557C10.2724 19.9144 10.364 19.9565 10.4612 19.9793C10.5584 20.0022 10.6592 20.0054 10.7577 19.9888C10.8561 19.9722 10.9503 19.9362 11.0346 19.8827C11.1189 19.8292 11.1917 19.7595 11.2487 19.6775L12.9987 17.2763L14.7487 19.6775C14.8675 19.8336 15.0427 19.9369 15.2368 19.9653C15.4308 19.9937 15.6283 19.945 15.7869 19.8296C15.9454 19.7142 16.0525 19.5413 16.0851 19.3479C16.1177 19.1545 16.0732 18.956 15.9613 18.795L14.2113 16.3937L17.0338 15.4775C17.1291 15.4484 17.2176 15.4006 17.2942 15.337C17.3709 15.2733 17.434 15.195 17.4801 15.1066C17.5261 15.0182 17.554 14.9215 17.5623 14.8222C17.5705 14.7229 17.5589 14.623 17.5281 14.5282C17.4973 14.4335 17.4479 14.3458 17.3828 14.2704C17.3178 14.1949 17.2383 14.1332 17.1491 14.0887C17.0599 14.0443 16.9628 14.0182 16.8633 14.0117C16.7639 14.0053 16.6642 14.0187 16.57 14.0513H16.5725ZM29.5175 14.5325C29.456 14.3434 29.3219 14.1865 29.1446 14.0962C28.9674 14.006 28.7616 13.9898 28.5725 14.0513L25.75 14.9675V12C25.75 11.8011 25.671 11.6103 25.5303 11.4697C25.3897 11.329 25.1989 11.25 25 11.25C24.8011 11.25 24.6103 11.329 24.4697 11.4697C24.329 11.6103 24.25 11.8011 24.25 12V14.9675L21.4275 14.0513C21.3333 14.0187 21.2336 14.0053 21.1342 14.0117C21.0347 14.0182 20.9376 14.0443 20.8484 14.0887C20.7592 14.1332 20.6797 14.1949 20.6147 14.2704C20.5496 14.3458 20.5002 14.4335 20.4694 14.5282C20.4386 14.623 20.427 14.7229 20.4352 14.8222C20.4435 14.9215 20.4714 15.0182 20.5174 15.1066C20.5635 15.195 20.6266 15.2733 20.7033 15.337C20.7799 15.4006 20.8684 15.4484 20.9638 15.4775L23.7862 16.3937L22.0425 18.795C21.982 18.8744 21.938 18.9652 21.9131 19.0618C21.8881 19.1585 21.8827 19.2592 21.8972 19.358C21.9117 19.4568 21.9457 19.5517 21.9974 19.6372C22.049 19.7226 22.1172 19.7969 22.1979 19.8557C22.2787 19.9144 22.3703 19.9565 22.4675 19.9793C22.5647 20.0022 22.6655 20.0054 22.7639 19.9888C22.8624 19.9722 22.9565 19.9362 23.0409 19.8827C23.1252 19.8292 23.198 19.7595 23.255 19.6775L25.005 17.2763L26.755 19.6775C26.8738 19.8336 27.049 19.9369 27.243 19.9653C27.4371 19.9937 27.6346 19.945 27.7931 19.8296C27.9517 19.7142 28.0587 19.5413 28.0913 19.3479C28.1239 19.1545 28.0795 18.956 27.9675 18.795L26.2237 16.3937L29.0462 15.4775C29.2335 15.4139 29.3881 15.279 29.4764 15.102C29.5646 14.925 29.5794 14.7203 29.5175 14.5325Z" fill="black"/>
</g>
</svg>
