<svg width="288" height="288" viewBox="0 0 288 288" fill="none" xmlns="http://www.w3.org/2000/svg">
<path d="M44.3077 18H243.692C249.568 18 255.203 19.8964 259.357 23.2721C263.512 26.6477 265.846 31.2261 265.846 36H22.1538C22.1538 31.2261 24.4879 26.6477 28.6426 23.2721C32.7972 19.8964 38.4321 18 44.3077 18ZM0 36V45C0 45.396 0.0221527 45.792 0.0886142 46.17L29.9298 256.122C31.1744 264.895 36.3446 272.991 44.457 278.869C52.5694 284.746 63.058 287.996 73.9274 288H214.095C224.961 287.997 235.447 284.749 243.558 278.875C251.67 273.001 256.843 264.91 258.092 256.14L287.911 46.152C287.959 45.8594 287.988 45.565 288 45.27V36C288 26.4522 283.332 17.2955 275.023 10.5442C266.713 3.79284 255.443 0 243.692 0H44.3077C32.5566 0 21.2867 3.79284 12.9774 10.5442C4.66812 17.2955 0 26.4522 0 36ZM172.778 103.5L182.791 117.576C183.519 118.601 183.991 119.732 184.18 120.905C184.369 122.077 184.272 123.269 183.895 124.412C183.517 125.554 182.867 126.625 181.98 127.563C181.093 128.501 179.987 129.288 178.726 129.879C177.465 130.47 176.073 130.853 174.629 131.007C173.186 131.161 171.719 131.082 170.313 130.776C168.907 130.469 167.589 129.94 166.435 129.22C165.28 128.499 164.311 127.601 163.584 126.576L153.593 112.5C152.62 111.132 151.222 109.996 149.538 109.206C147.854 108.416 145.944 108 144 108C142.056 108 140.146 108.416 138.462 109.206C136.778 109.996 135.38 111.132 134.407 112.5L124.394 126.576C123.672 127.608 122.706 128.513 121.551 129.241C120.397 129.968 119.077 130.502 117.667 130.813C116.257 131.124 114.785 131.206 113.337 131.053C111.888 130.9 110.491 130.515 109.226 129.922C107.961 129.328 106.853 128.537 105.965 127.595C105.078 126.652 104.429 125.576 104.056 124.428C103.682 123.281 103.592 122.084 103.79 120.908C103.988 119.732 104.47 118.6 105.209 117.576L115.222 103.5C128.005 85.5 159.973 85.5 172.778 103.5ZM191.963 166.5L189.57 163.152C188.102 161.083 187.705 158.624 188.467 156.316C189.229 154.009 191.089 152.042 193.636 150.849C196.183 149.656 199.209 149.333 202.049 149.952C204.888 150.572 207.309 152.083 208.778 154.152L211.148 157.5C214.065 161.604 215.6 166.26 215.6 171C215.6 175.739 214.065 180.395 211.149 184.5C208.232 188.604 204.037 192.013 198.986 194.382C193.934 196.752 188.204 198 182.37 198H166.154C163.216 198 160.399 197.052 158.321 195.364C156.244 193.676 155.077 191.387 155.077 189C155.077 186.613 156.244 184.324 158.321 182.636C160.399 180.948 163.216 180 166.154 180H182.37C184.315 180 186.225 179.584 187.909 178.794C189.593 178.004 190.991 176.868 191.963 175.5C192.935 174.132 193.447 172.58 193.447 171C193.447 169.42 192.935 167.868 191.963 166.5ZM121.846 180C124.784 180 127.601 180.948 129.679 182.636C131.756 184.324 132.923 186.613 132.923 189C132.923 191.387 131.756 193.676 129.679 195.364C127.601 197.052 124.784 198 121.846 198H105.63C99.7945 198.003 94.0614 196.758 89.0067 194.389C83.952 192.021 79.754 188.613 76.8349 184.508C73.9157 180.402 72.3784 175.745 72.3775 171.004C72.3765 166.263 73.912 161.606 76.8295 157.5L79.2222 154.152C80.7015 152.102 83.1189 150.61 85.9468 150.003C88.7746 149.395 91.7835 149.721 94.3166 150.91C96.8498 152.098 98.7016 154.052 99.468 156.346C100.234 158.639 99.8531 161.086 98.4074 163.152L96.0369 166.5C95.0647 167.868 94.5529 169.42 94.5529 171C94.5529 172.58 95.0647 174.132 96.0369 175.5C97.009 176.868 98.4073 178.004 100.091 178.794C101.775 179.584 103.685 180 105.63 180H121.846Z" fill="#2A8E64"/>
</svg>
