<svg width="288" height="409" viewBox="0 0 288 409" fill="none" xmlns="http://www.w3.org/2000/svg">
<path d="M153.12 4.19508C151.993 2.87943 150.595 1.82326 149.022 1.09911C147.449 0.374956 145.737 0 144.005 0C142.273 0 140.561 0.374956 138.988 1.09911C137.415 1.82326 136.017 2.87943 134.89 4.19508C103.23 41.2251 0 169.245 0 264.075C0 352.445 55.64 408.075 144 408.075C232.36 408.075 288 352.445 288 264.075C288 169.245 184.77 41.2251 153.12 4.19508ZM160 356.075C158.078 356.079 156.183 355.622 154.475 354.741C152.766 353.86 151.295 352.582 150.183 351.014C149.072 349.446 148.353 347.634 148.088 345.73C147.823 343.827 148.019 341.887 148.66 340.075C149.478 337.711 151.022 335.665 153.07 334.228C155.119 332.792 157.568 332.038 160.07 332.075C175.954 332.041 191.177 325.716 202.409 314.484C213.641 303.252 219.966 288.029 220 272.145C219.963 269.643 220.717 267.194 222.153 265.145C223.59 263.097 225.636 261.553 228 260.735C229.812 260.094 231.752 259.898 233.655 260.163C235.559 260.429 237.371 261.147 238.939 262.258C240.507 263.37 241.785 264.842 242.666 266.55C243.547 268.258 244.004 270.153 244 272.075C243.976 294.346 235.119 315.698 219.371 331.446C203.623 347.194 182.271 356.051 160 356.075Z" fill="#248596"/>
</svg>
